/* XPM */
static char *tile[] = {
"32 32 2 1",
". c #000000",
"# c #39FF14",
"..............................##",
"..............................##",
"..............................##",
"..............................##",
"..............................##",
"..............................##",
"..............................##",
"..............................##",
"..............................##",
"..............................##",
"..............................##",
"..............................##",
"..............................##",
"..............................##",
"..............................##",
"..............................##",
"..............................##",
"..............................##",
"..............................##",
"..............................##",
"..............................##",
"..............................##",
"..............................##",
"..............................##",
"..............................##",
"..............................##",
"..............................##",
"..............................##",
"..............................##",
"..............................##",
"..............................##",
"..............................##"
};