/* XPM */
static char *tile[] = {
"32 32 5 1",
". c #070812",
"2 c #003C40",
"1 c #007A80",
"# c #00F5FF",
"+ c #0B0D1E",
"..2222222222222222222222222222..",
"..1111111111111111111111111111..",
"..########################21##2.",
"..########################21##2.",
"..22222222222222222222222221##2.",
"..++++++++++++++++++++++++21##2.",
"..++++++++++++++++++++++++21##2.",
"..++++++++++++++++++++++++21##2.",
"..++++++++++++++++++++++++21##2.",
"..++++++++++++++++++++++++21##2.",
"..++++++++++++++++++++++++21##2.",
"..++++++++++++++++++++++++21##2.",
"..++++++++++++++++++++++++21##2.",
"..++++++++++++++++++++++++21##2.",
"..++++++++++++++++++++++++21##2.",
"..++++++++++++++++++++++++21##2.",
"..++++++++++++++++++++++++21##2.",
"..++++++++++++++++++++++++21##2.",
"..++++++++++++++++++++++++21##2.",
"..++++++++++++++++++++++++21##2.",
"..++++++++++++++++++++++++21##2.",
"..++++++++++++++++++++++++21##2.",
"..++++++++++++++++++++++++21##2.",
"..++++++++++++++++++++++++21##2.",
"..++++++++++++++++++++++++21##2.",
"..++++++++++++++++++++++++21##2.",
"..++++++++++++++++++++++++21##2.",
"..++++++++++++++++++++++++21##2.",
"..++++++++++++++++++++++++21##2.",
"..++++++++++++++++++++++++21##2.",
"................................",
"................................"
};