/* XPM */
static char * exit_portal_xpm[] = {
"32 32 2 1",
". c None",
"# c #FF00FF",
"................................",
"................................",
"................................",
"................................",
"................................",
"................................",
"...........############.........",
"..........#............#........",
".........#..............#.......",
"........#................#......",
".......#..................#.....",
"......##..................#.....",
"......##..................##....",
"......##..................##....",
"......##..................##....",
"......##..................##....",
"......##..................##....",
"......##..................##....",
"......##..................##....",
"......##..................##....",
"......##..................##....",
"......##..................##....",
"......##..................#.....",
".......#.................#......",
"........##..............#.......",
"..........#............#........",
"...........#..........#.........",
"............##########..........",
"................................",
"................................",
"................................",
"................................"
};